<svg xmlns="http://www.w3.org/2000/svg" viewBox="0 0 196 215.23"><defs><style>.a{fill:none;}.b{fill:#d40511;}</style></defs><path class="a" d="M178.18,90.45c-.09-1-.21-1.89-.38-2.83l0-.19c-.19-1-.42-2-.7-3v-.06c-.27-.94-.59-1.86-.94-2.76l-.09-.27c-.32-.8-.68-1.59-1.06-2.37l-.29-.6c-.35-.67-.74-1.34-1.14-2l-.53-.86c-.41-.62-.85-1.23-1.3-1.83l-.56-.73c-.52-.65-1.08-1.29-1.66-1.91-.12-.14-.25-.27-.38-.41a29.7,29.7,0,0,0-2.23-2.1l0,0c-.84-.71-1.72-1.38-2.64-2s-1.75-1.14-2.65-1.64c-.28-.15-.57-.28-.85-.42-.58-.31-1.17-.61-1.76-.87s-1.28-.53-1.93-.77l-.71-.26c-.74-.26-1.49-.48-2.24-.67l-.51-.14c-.94-.23-1.89-.42-2.84-.57l-.17,0c-.29,0-.59-.08-.89-.11-.59-.08-1.18-.13-1.77-.17a35.55,35.55,0,0,0-21.35,6.32l0,0,0-.06-.17.11c-.58.44-1.16.89-1.72,1.37l-.08.07c-.58.5-1.14,1-1.69,1.56s-.78.82-1.17,1.23c-.76.84-1.49,1.7-2.17,2.62l-3.18,5.49v0L108.17,93.6c1.57,2.54,3,4.78,3,4.78l8.27,14.27a31.9,31.9,0,0,0,4,4.55c.17.16.34.3.52.45.54.49,1.09,1,1.67,1.42.26.2.53.38.8.57l0,0,0,0c.79.54,1.62,1,2.47,1.54h0a36.92,36.92,0,0,0,5.24,2.48l.16.06q1.32.51,2.67.9l.09,0a35.09,35.09,0,0,0,5.54,1.12l.79.07c.54,0,1.08.09,1.62.11a32.26,32.26,0,0,0,14.36-3.1v.15a33.67,33.67,0,0,0,4.67-2.64l.19-.14c.82-.57,1.6-1.17,2.35-1.8.17-.14.34-.3.51-.45.61-.53,1.19-1.08,1.75-1.65.28-.28.54-.57.8-.86q.66-.7,1.26-1.44c.31-.39.61-.79.91-1.19s.66-.91,1-1.37.55-.89.82-1.34.6-1,.87-1.52.37-.75.54-1.12c.3-.62.58-1.23.84-1.86.11-.29.21-.59.32-.88.26-.71.51-1.42.72-2.14.08-.26.14-.53.21-.8.19-.73.37-1.47.52-2.22.06-.35.1-.69.16-1,.1-.66.2-1.32.27-2s.06-1.08.09-1.62.05-.92.05-1.39c0-.77,0-1.54-.09-2.32C178.21,90.91,178.2,90.68,178.18,90.45Z"/><path class="a" d="M60.72,76.36a9.14,9.14,0,0,0-4.57,17.06v11.85a4.57,4.57,0,1,0,9.14,0V93.42a9.14,9.14,0,0,0-4.57-17.06Z"/><path class="a" d="M178.18,90.45c-.09-1-.21-1.89-.38-2.83l0-.19c-.19-1-.42-2-.7-3v-.06c-.27-.94-.59-1.86-.94-2.76l-.09-.27c-.32-.8-.68-1.59-1.06-2.37l-.29-.6c-.35-.67-.74-1.34-1.14-2l-.53-.86c-.41-.62-.85-1.23-1.3-1.83l-.56-.73c-.52-.65-1.08-1.29-1.66-1.91-.12-.14-.25-.27-.38-.41a29.7,29.7,0,0,0-2.23-2.1l0,0c-.84-.71-1.72-1.38-2.64-2s-1.75-1.14-2.65-1.64l-.85-.43c-.58-.3-1.17-.6-1.76-.86s-1.28-.53-1.94-.77l-.7-.26c-.74-.26-1.49-.48-2.24-.67l-.51-.14c-.94-.23-1.89-.42-2.84-.57l-.17,0c-.29,0-.59-.08-.89-.11-.59-.08-1.18-.13-1.77-.17a35.55,35.55,0,0,0-21.35,6.32l0,0,0-.06-.17.11c-.58.44-1.16.89-1.72,1.37l-.08.07c-.58.5-1.14,1-1.69,1.56s-.78.82-1.17,1.23c-.76.84-1.49,1.7-2.17,2.62l-3.18,5.49v0L108.17,93.6c1.57,2.54,3,4.78,3,4.78l8.27,14.27a31.9,31.9,0,0,0,4,4.55c.17.16.34.3.52.45.54.49,1.09,1,1.67,1.42.26.2.53.38.8.57l0,0,0,0c.79.54,1.62,1,2.47,1.54h0a36.92,36.92,0,0,0,5.24,2.48l.16.06q1.32.51,2.67.9l.09,0a35.09,35.09,0,0,0,5.54,1.12l.79.07c.54,0,1.08.09,1.62.11a32.26,32.26,0,0,0,14.36-3.1v.15a33.67,33.67,0,0,0,4.67-2.64l.19-.14c.82-.57,1.6-1.17,2.35-1.8.17-.14.34-.3.51-.45.61-.53,1.19-1.08,1.75-1.65.28-.28.54-.57.8-.86q.66-.7,1.26-1.44c.31-.39.61-.79.91-1.19s.66-.91,1-1.37.55-.89.82-1.34.6-1,.87-1.52.37-.75.54-1.12c.3-.62.58-1.23.84-1.86.11-.29.21-.59.32-.88.26-.71.51-1.42.72-2.14.08-.26.14-.53.21-.8.19-.74.37-1.47.52-2.22.06-.35.1-.69.16-1,.1-.66.2-1.32.27-2s.06-1.08.09-1.62.05-.92.05-1.39c0-.77,0-1.54-.09-2.32C178.21,90.91,178.2,90.68,178.18,90.45Z"/><path class="a" d="M60.72,76.36a9.14,9.14,0,0,0-4.57,17.06v11.85a4.57,4.57,0,1,0,9.14,0V93.42a9.14,9.14,0,0,0-4.57-17.06Z"/><path d="M137.21,165.05a4.73,4.73,0,0,1-3.46-1.31,4.32,4.32,0,0,1-1.35-3.24,4.23,4.23,0,0,1,1.35-3.21,5.38,5.38,0,0,1,6.92,0A4.26,4.26,0,0,1,142,160.5a4.36,4.36,0,0,1-1.35,3.24A4.75,4.75,0,0,1,137.21,165.05ZM133.67,214V171.8h7.17V214Z"/><path d="M121.19,214.81q-5.66,0-7.85-2.74t-2.19-7.63V154.93h7.17v49a5.11,5.11,0,0,0,1.05,3.67,4.44,4.44,0,0,0,3.25,1.06c.39,0,.76,0,1.09,0s.68-.07,1-.12v6.07A27.45,27.45,0,0,1,121.19,214.81Z"/><path d="M154.16,214v-59h7.17v24A15.74,15.74,0,0,1,167,173a14.88,14.88,0,0,1,7.76-2.06,14.35,14.35,0,0,1,8.43,2.53,16.24,16.24,0,0,1,5.61,7.08,26.73,26.73,0,0,1,2,10.71v3.21a26.73,26.73,0,0,1-2,10.71,16.3,16.3,0,0,1-5.61,7.08,14.35,14.35,0,0,1-8.43,2.53,14.62,14.62,0,0,1-8.14-2.32,16.62,16.62,0,0,1-5.78-6.62V214Zm18.22-36.6a11.45,11.45,0,0,0-6.37,1.89,13.88,13.88,0,0,0-4.68,5.27v16.7a13.84,13.84,0,0,0,4.68,5.28,11.45,11.45,0,0,0,6.37,1.89,10,10,0,0,0,8.22-3.75q3-3.75,3-10.42v-2.69q0-6.67-3-10.42A10,10,0,0,0,172.38,177.37Z"/><path d="M196,93.39c0-.49,0-1,0-1.47l0-.69c0-.16,0-.31,0-.47s0-.52,0-.79,0-.67-.07-1c0-.15,0-.3-.05-.45-.05-.52-.11-1-.17-1.55,0-.13,0-.26-.05-.38s-.07-.47-.11-.7a51.59,51.59,0,0,0-1.36-6.32v-.07a50.06,50.06,0,0,0-6.4-13.88c-.09-.13-.16-.26-.25-.39s-.14-.24-.23-.36-.2-.25-.29-.39-.39-.51-.58-.77c-.45-.62-.9-1.23-1.38-1.83l0,0L184,60.71l-.41-.45c-.4-.46-.81-.91-1.23-1.36-.12-.13-.23-.27-.35-.39-.43-.44-.86-.86-1.3-1.28l-1-.92h0l0,0c-.95-.87-1.95-1.7-3-2.51l-.24-.2-.14-.11c-.35-.27-.72-.52-1.09-.78s-.62-.48-.95-.71l-.28-.18c-.88-.6-1.77-1.17-2.69-1.71-.44-.26-.89-.49-1.33-.74s-1-.56-1.54-.82-1.28-.62-1.93-.92l-.5-.23-.45-.19c-.76-.33-1.52-.63-2.3-.92-.34-.13-.67-.26-1-.37l-.11,0c-.89-.31-1.8-.59-2.71-.84l-.37-.12-.31-.1-.09,0-.34-.08c-.92-.23-1.84-.43-2.77-.62l-.24-.05-.4-.09-.38-.06c-.56-.1-1.13-.18-1.69-.26-.36-.05-.72-.11-1.08-.15l-.7-.08h-.09c-.5-.06-1-.1-1.51-.14l-.45,0h0c-.24,0-.47,0-.71,0-.58,0-1.15-.07-1.73-.08-.37,0-.74,0-1.12,0h-.8c-1.05,0-2.1.08-3.15.17-.48,0-1,.1-1.43.16l-1.84.24-1.56.25h0c-1,.18-1.92.39-2.86.62l-1.26.34q-1.35.36-2.67.81l-.49.15a50,50,0,0,0-11.92,6A32.57,32.57,0,0,0,107.69,60l-.14.18c-.38.49-.76,1-1.12,1.49l-.23.36c-.3.44-.6.88-.88,1.33l0,.06h0l-28,48.33c-.1.17-.21.33-.32.5a32.46,32.46,0,0,1-4.43,5l-.06.05c-.68.63-1.39,1.24-2.13,1.81h0c-.87.67-1.78,1.29-2.71,1.87-.12.07-.23.17-.35.24s-.32.18-.48.27-.58.3-.86.45-.71.39-1.07.57-.48.26-.72.37l-.9.41c-.24.1-.49.18-.73.27l-.23.09c-.52.2-1,.42-1.57.6l-.92.31a32.47,32.47,0,0,1-3.53.87,30.81,30.81,0,0,1-3.44.44c-.18,0-.37,0-.56,0-1,.06-2,.09-3,.06l-.33,0a28.57,28.57,0,0,1-3.21-.29h-.09c-1.12-.17-2.24-.39-3.34-.67h0l-.6-.06c-2.48-1-4.36-1.72-5.2-2.12v.15a33.67,33.67,0,0,1-4.67-2.64l-.19-.14c-.82-.57-1.6-1.17-2.35-1.8-.17-.14-.34-.3-.51-.45-.37-.32-.71-.67-1.07-1s-.47-.43-.68-.65-.54-.57-.8-.86q-.66-.7-1.26-1.44c-.31-.39-.61-.79-.91-1.19s-.66-.91-1-1.37-.55-.89-.82-1.34-.6-1-.87-1.52-.37-.75-.54-1.12c-.3-.62-.58-1.23-.84-1.86-.11-.29-.21-.59-.32-.88-.26-.71-.51-1.42-.72-2.14-.08-.26-.14-.53-.21-.8-.19-.74-.37-1.47-.52-2.22-.06-.35-.1-.69-.16-1-.1-.66-.2-1.32-.27-2,0-.49-.06-1-.08-1.48s-.06-1-.06-1.56,0-1,.06-1.55,0-1,.08-1.48c.07-.67.17-1.33.27-2,.06-.34.1-.69.16-1,.15-.75.33-1.49.52-2.23.07-.26.13-.53.21-.8.21-.72.46-1.43.72-2.14.11-.29.21-.58.32-.88.26-.62.54-1.24.84-1.85.17-.38.35-.75.54-1.12s.57-1,.87-1.53.53-.89.82-1.33.64-.92,1-1.37.6-.81.91-1.19.82-1,1.26-1.45c.26-.29.52-.58.8-.86.56-.57,1.14-1.11,1.75-1.65l.51-.45c.75-.62,1.53-1.22,2.35-1.79a1.33,1.33,0,0,1,.19-.14c1.49-1,6.71-5,16.91-6.08,6.55-.68,19.34,2,21.5,4.69l1.45.05c6.09.08,11,.19,11,.19V55.33c-13.83-15-36.17-12.14-38-11.94v.1l-.47,0-.5.07-.38,0-.59.08-1.14.19-.54.08c-.14,0-.27.07-.41.09-.72.14-1.44.32-2.16.49-.39.09-.79.16-1.18.26l-.09,0A2.8,2.8,0,0,0,37,45c-1.07.3-2.13.63-3.18,1l-.69.25-.3.1-.29.11-.33.12c-.72.28-1.45.58-2.16.9-.36.15-.7.33-1.05.5l-.59.25-.4.21-.1.05c-.65.33-1.28.7-1.91,1s-1.14.59-1.68.92l-.14.08-.11.06a2.2,2.2,0,0,1-.25.17Q22.07,51.82,20.44,53l-.21.14,0,0h0l-.08.07-.4.28-.14.11c-.45.35-.86.73-1.3,1.09s-1.08.89-1.6,1.36l-.34.28-.85.78c-.49.48-1,1-1.45,1.44-.69.72-1.35,1.45-2,2.21l-.5.6-.36.44-.08.09-.33.44,0,0c-.34.45-.69.9-1,1.35-.19.26-.4.51-.58.77s-.2.26-.3.39-.14.24-.22.36-.16.26-.25.39c-.24.37-.44.76-.67,1.13l-.33.5c-.11.2-.22.4-.34.6l-.38.67c-.33.58-.66,1.16-1,1.76s-.5,1-.73,1.43l-.29.63c-.12.26-.23.53-.35.79s-.14.28-.2.43L4,73.91c-.11.25-.2.5-.3.76-.22.55-.45,1.1-.65,1.65l0,.09c-.08.23-.15.46-.23.69-.14.4-.27.8-.4,1.2,0,.15-.1.3-.15.45l-.12.45c0,.1-.07.2-.1.29v.07l-.12.49-.15.55c-.07.27-.15.55-.21.82l-.12.51c-.05.18-.08.37-.13.56s-.05.23-.08.35-.1.43-.14.65-.08.42-.12.62-.09.55-.14.83-.12.63-.17,1l-.06.48,0,.21c0,.12,0,.25,0,.38a.41.41,0,0,1,0,.11l-.06.5L.29,88l0,.27c0,.15,0,.3,0,.46s0,.14,0,.21,0,.39,0,.58c0,.38-.07.77-.09,1.15,0,.11,0,.21,0,.32s0,.15,0,.22l0,.69c0,.27,0,.55,0,.82S0,93,0,93.1v.66c0,.12,0,.24,0,.36,0,.28,0,.55,0,.83l0,.68c0,.08,0,.15,0,.23s0,.21,0,.31c0,.39.06.77.09,1.16,0,.19,0,.38,0,.58s0,.14,0,.21,0,.31,0,.46l0,.27.06.45.06.49a.45.45,0,0,1,0,.11c0,.13,0,.26,0,.39l0,.2.06.49c0,.31.11.63.17,1s.09.55.14.82.07.42.12.62.09.44.14.66.06.23.08.35.08.37.13.56l.12.51c.06.27.14.54.21.82l.15.54.12.49v.07c0,.1.07.2.1.29l.12.45c0,.15.11.31.15.46.13.4.26.8.4,1.2.08.22.15.45.23.68l0,.09c.2.56.43,1.11.65,1.66.1.25.19.51.3.76l.16.36a50.29,50.29,0,0,0,4.25,7.94c.09.13.16.26.25.38s.14.24.22.36.21.26.3.39.39.52.58.78c.33.45.68.9,1,1.34l0,0,.33.43.08.1.36.43.5.61c.64.75,1.3,1.49,2,2.21.48.49,1,1,1.45,1.43.28.27.56.52.85.78l.34.29c.52.47,1.06.91,1.6,1.35s.85.75,1.3,1.09l.14.11.4.29.08.06h0l0,0,.21.14c.41.3.84.57,1.26.85l.12.1.21.13c.59.4,1.17.83,1.77,1.2l.25.17.11.07.14.08c1.17.7,2.36,1.35,3.59,2l.1.06.4.21.59.25c.35.16.69.34,1.05.5.71.31,1.44.61,2.16.89l.33.12.29.12.3.1.69.25,1.18.37.32.1c.56.18,1.11.37,1.68.52l.31.1.09,0c.39.11.79.18,1.18.27l.29.06c.62.14,1.24.3,1.87.42.14,0,.27.07.41.09l.54.09c.37.07.75.12,1.14.18l.59.08.38.06.5.06.7.08.59,0,1,.09.5,0h.39c.54,0,1.08,0,1.62,0,.18,0,.35,0,.53,0h.32l1.14,0h.14l.38,0c1.11,0,2.21-.09,3.3-.19l1.11-.11c1-.11,1.91-.25,2.85-.41.49-.08,1-.18,1.47-.28s1.17-.26,1.75-.4h.06c.24-.06.47-.1.71-.17.6-.15,1.2-.32,1.8-.5h0l.25-.08,1.16-.37.09,0a49.83,49.83,0,0,0,12.57-6.18,32.64,32.64,0,0,0,9.71-8.16l.13-.18c.39-.49.77-1,1.12-1.49l.24-.36c.3-.44.6-.88.88-1.33l0-.07h0l.35-.6c.21-.28.42-.56.62-.85l.36-.57L98,111.1l2.32,4.07,3.48,6,.36.57c.18.25,1.08,1.57,1.08,1.57a32.68,32.68,0,0,0,12,11.53,51.4,51.4,0,0,0,5.57,3.28h0l.35.17a50.12,50.12,0,0,0,6.79,2.82l1.41.45c.6.18,1.2.35,1.8.5.84.22,1.68.41,2.52.58.49.1,1,.2,1.47.28.94.16,1.89.3,2.85.41l1.11.11c1.09.1,2.19.17,3.3.19l.38,0H145c1.2,0,2.4,0,3.61-.1H149l.5,0,1-.09.59,0,.7-.08.5-.06.38-.06.59-.08c.39-.06.77-.11,1.14-.18l.54-.09c.14,0,.27-.06.41-.09,1.12-.21,2.23-.45,3.34-.75l.09,0,.31-.1c1.07-.29,2.13-.63,3.18-1l.69-.25.3-.1.29-.12.33-.12c.72-.28,1.45-.58,2.16-.89.36-.16.7-.34,1.05-.5l.59-.25.4-.21.1-.06c1.23-.61,2.42-1.26,3.59-2l.14-.08.11-.07.25-.17q1.73-1.06,3.36-2.28l.21-.14,0,0h0l.08-.06.4-.29.14-.11c.45-.34.86-.73,1.3-1.09s1.08-.88,1.6-1.35l.34-.29c.29-.26.57-.51.85-.78.49-.47,1-.94,1.45-1.43.69-.72,1.35-1.46,2-2.21l.5-.61.36-.43.08-.1c.69-.85,1.35-1.73,2-2.62l.29-.39c.3-.43.56-.87.84-1.31s.48-.73.7-1.1l.06-.09c.31-.52.61-1,.9-1.57.1-.18.21-.36.31-.55l.32-.61,0-.09c.25-.48.5-1,.74-1.45l0-.09c.11-.21.2-.42.29-.64.23-.48.44-1,.65-1.45s.39-1,.57-1.44.29-.71.42-1.07.15-.46.23-.68c.14-.4.27-.8.4-1.2,0-.15.1-.31.15-.46l.21-.75.3-1.09c.07-.28.15-.55.21-.82l.12-.51c.12-.52.25-1,.35-1.57.05-.2.08-.41.12-.62s.09-.55.14-.82.12-.64.17-1l.12-1,.09-.73.06-.45,0-.27c0-.36.06-.71.09-1.06s.07-.9.1-1.35c0-.15,0-.31,0-.47s0-.1,0-.15l0-.71c0-.2,0-.41,0-.61s0-.31,0-.47v-.37Zm-17.74,1.46c0,.54,0,1.08-.09,1.62s-.17,1.32-.27,2c-.06.35-.1.69-.16,1-.15.75-.33,1.48-.52,2.22-.07.27-.13.54-.21.8-.21.72-.46,1.43-.72,2.14-.11.29-.21.59-.32.88-.26.63-.54,1.24-.84,1.86-.17.37-.35.75-.54,1.12s-.57,1-.87,1.52-.53.9-.82,1.34-.64.92-1,1.37-.6.8-.91,1.19-.82,1-1.26,1.44c-.26.29-.52.58-.8.86-.56.57-1.14,1.12-1.75,1.65-.17.15-.34.31-.51.45-.75.63-1.53,1.23-2.35,1.8l-.19.14a33.67,33.67,0,0,1-4.67,2.64v-.15a32.26,32.26,0,0,1-14.36,3.1c-.54,0-1.08-.06-1.62-.11l-.79-.07a35.09,35.09,0,0,1-5.54-1.12l-.09,0q-1.35-.39-2.67-.9l-.16-.06a36.92,36.92,0,0,1-5.24-2.48h0c-.85-.49-1.68-1-2.47-1.54l0,0,0,0c-.27-.19-.54-.37-.8-.57-.58-.45-1.13-.93-1.67-1.42-.18-.15-.35-.29-.52-.45a31.9,31.9,0,0,1-4-4.55l-8.27-14.27s-1.47-2.24-3-4.78l8.16-14.07v0l3.18-5.49c.68-.92,1.41-1.78,2.17-2.62.39-.41.77-.84,1.17-1.23s1.11-1.06,1.69-1.56l.08-.07c.56-.48,1.14-.93,1.72-1.37l.17-.11,0,.06,0,0A35.55,35.55,0,0,1,147.9,60.9c.59,0,1.18.09,1.77.17.3,0,.6.06.89.11l.17,0c1,.15,1.9.34,2.84.57l.51.14c.75.19,1.5.41,2.24.67l.7.26c.66.24,1.3.49,1.94.77s1.18.56,1.76.86l.85.43c.9.5,1.79,1,2.65,1.64s1.8,1.31,2.64,2l0,0a29.7,29.7,0,0,1,2.23,2.1c.13.14.26.27.38.41.58.62,1.14,1.26,1.66,1.91l.56.73c.45.6.89,1.21,1.3,1.83l.53.86c.4.65.79,1.32,1.14,2l.29.6c.38.78.74,1.57,1.06,2.37l.09.27c.35.9.67,1.82.94,2.76v.06c.28,1,.51,2,.7,3l0,.19c.16.94.29,1.88.38,2.83,0,.23,0,.46,0,.69.05.78.09,1.55.09,2.32C178.31,93.93,178.28,94.39,178.26,94.85Z"/><path class="b" d="M30.44,215.23A26.27,26.27,0,0,1,17.07,212a22.17,22.17,0,0,1-8.69-9.24A30.63,30.63,0,0,1,5.3,188.58v-4.89a30.66,30.66,0,0,1,3.08-14.17,22.08,22.08,0,0,1,8.69-9.23A26.17,26.17,0,0,1,30.44,157a25,25,0,0,1,19.4,8.52l-7.43,8Q37.36,168,31,168q-6.16,0-9.49,4.18t-3.33,12v3.88q0,7.75,3.29,12t9.44,4.22a15.8,15.8,0,0,0,6.2-1.26,17.42,17.42,0,0,0,5.78-4.22l7.42,8a23.77,23.77,0,0,1-8.77,6.33A28.74,28.74,0,0,1,30.44,215.23Z"/><path class="b" d="M56.5,214V158.31H77.08q12.39,0,19.1,6.62t6.7,18.93v4.55q0,12.32-6.7,18.94T77.08,214Zm20.58-44.79H69.23v33.91h7.85q13.07,0,13.07-15.18v-3.54Q90.15,169.19,77.08,169.18Z"/><path class="b" d="M85.42,9.38C79.49,3.15,71.18,0,60.73,0h0C50.26,0,42,3.15,36,9.38c-8.9,9.32-10.28,23.07-10.2,34.1.23-.13.46-.26.7-.38l.11-.06.4-.21.58-.25,1.06-.5c.71-.32,1.43-.61,2.16-.9l.33-.11.28-.12.3-.1.69-.25c1-.37,2.11-.7,3.18-1a2.8,2.8,0,0,0,.31-.09l.1,0c.39-.11.79-.18,1.18-.27l1.43-.32c.34-7.65,1.82-15.73,6.59-20.74,3.5-3.65,8.56-5.43,15.49-5.43h0c6.93,0,12,1.78,15.48,5.43C83.48,25.78,83.13,40.51,82.7,50V65.45s-4.91-.11-11-.19c-8.1-.11-18.27-.16-21.76.19-6.1.62-13.78,5.7-14.6,6.26l-.12.09a24,24,0,0,0-1.94,1.48l-.4.36c-.5.44-1,.88-1.43,1.34-.2.21-.4.42-.59.64-.41.44-.75.83-1.07,1.22s-.5.64-.73,1-.55.75-.79,1.11-.44.7-.65,1-.51.87-.73,1.28c-.11.21-.2.41-.3.62l-.13.27c-.25.53-.48,1-.68,1.52l-.26.71c-.21.58-.42,1.15-.59,1.73l-.16.63c-.16.62-.31,1.22-.43,1.83l-.12.81c-.09.57-.17,1.1-.22,1.64,0,.29,0,.61-.05.92l0,.51c0,.34,0,.67,0,1s0,.67,0,1v.21l0,.29c0,.32,0,.63.05,1,0,.52.13,1,.22,1.58l.13.88c.11.58.82,8.62,11.13,16.94,5.65,4.57,16.84,4.48,19.75,3.93a26.21,26.21,0,0,0,16.65-10.58L95.44,68V50h0C96,38.45,96.19,20.66,85.42,9.38Zm-20.13,84v11.85a4.57,4.57,0,1,1-9.14,0V93.42a9.15,9.15,0,1,1,9.14,0Z"/></svg>